<svg width="160" height="160" viewBox="0 0 160 160" fill="none" xmlns="http://www.w3.org/2000/svg">
<path d="M122 0H38C17.0132 0 0 17.0132 0 38V122C0 142.987 17.0132 160 38 160H122C142.987 160 160 142.987 160 122V38C160 17.0132 142.987 0 122 0Z" fill="#E24B4A"/>
<path d="M70 42.8889C70 35.7706 64.6274 30 58 30C51.3726 30 46 35.7706 46 42.8889V133.111C46 140.229 51.3726 146 58 146C64.6274 146 70 140.229 70 133.111V42.8889Z" fill="white"/>
<path d="M86 118C105.882 118 122 101.882 122 82C122 62.1177 105.882 46 86 46C66.1177 46 50 62.1177 50 82C50 101.882 66.1177 118 86 118Z" fill="#E24B4A"/>
<path d="M86 108C100.359 108 112 96.3594 112 82C112 67.6406 100.359 56 86 56C71.6406 56 60 67.6406 60 82C60 96.3594 71.6406 108 86 108Z" fill="white"/>
</svg>
