<svg width="512" height="512" viewBox="0 0 512 512" fill="none" xmlns="http://www.w3.org/2000/svg">
<g clip-path="url(#clip0_12195_12238)">
<path d="M0 0C168.96 0 337.92 0 512 0C512 168.96 512 337.92 512 512C343.04 512 174.08 512 0 512C0 343.04 0 174.08 0 0Z" fill="#4CC897"/>
<path d="M185.259 133.198C189.052 136.299 191.792 139.922 192.749 144.678C192.923 146.916 192.913 149.145 192.901 151.388C192.902 152.051 192.903 152.714 192.904 153.396C192.907 155.579 192.9 157.761 192.893 159.943C192.892 161.462 192.892 162.981 192.892 164.5C192.891 167.679 192.886 170.858 192.877 174.037C192.868 177.71 192.864 181.383 192.865 185.056C192.865 188.596 192.862 192.135 192.857 195.675C192.855 197.179 192.854 198.683 192.853 200.187C192.852 202.286 192.846 204.384 192.84 206.483C192.84 207.106 192.84 207.73 192.841 208.372C192.838 208.943 192.835 209.515 192.832 210.104C192.831 210.6 192.83 211.096 192.829 211.606C192.75 212.937 192.505 214.098 192.125 215.375C193.793 214.718 194.753 214.039 196.038 212.788C212.322 197.092 234.609 190.502 257.037 190.375C278.637 190.523 300.508 196.315 316.956 210.541C317.342 210.874 317.728 211.206 318.126 211.548C327.046 219.291 327.046 219.291 330.687 223.835C330.938 224.147 331.188 224.459 331.447 224.78C335.654 230.06 339.301 235.479 342.546 241.358C342.826 241.843 343.105 242.327 343.392 242.826C348.451 251.986 351.127 262.044 353.157 272.175C353.312 272.914 353.466 273.653 353.625 274.415C357.386 296.136 353.48 321.619 341.298 340.455C337.938 344.999 333.504 348.518 328.191 350.727C324.024 351.331 319.992 351.525 316.488 349.027C312.83 345.91 311.79 341.989 311.339 337.433C310.779 328.248 310.63 319.618 314.142 310.974C316.43 305.151 316.548 299.154 316.529 293.002C316.527 291.672 316.542 290.343 316.557 289.013C316.628 273.669 310.773 258.264 300.104 246.796C299.839 246.476 299.574 246.155 299.3 245.825C296.96 243.033 294.419 240.975 291.366 238.941C290.9 238.629 290.434 238.316 289.954 237.995C276.987 229.463 261.608 225.908 245.997 228.478C236.882 230.289 228.019 233.712 220.734 239.39C220.355 239.64 219.977 239.891 219.588 240.15C218.222 239.81 218.222 239.81 216.467 238.941C208.371 235.167 199.812 233.879 191.033 236.26C181.034 239.674 173.814 245.538 169.031 254.651C168.416 256.304 168.065 257.745 167.783 259.485C168.303 259.457 168.824 259.429 169.36 259.401C175.582 259.207 179.556 260.005 184.206 264.093C189.41 269.472 189.72 276.098 189.717 283.101C189.719 283.77 189.721 284.438 189.723 285.127C189.728 286.575 189.731 288.023 189.734 289.471C189.738 291.761 189.748 294.052 189.759 296.342C189.792 302.853 189.822 309.364 189.832 315.875C189.837 319.86 189.856 323.844 189.882 327.829C189.89 329.348 189.893 330.868 189.892 332.387C189.89 334.508 189.904 336.628 189.922 338.748C189.917 339.378 189.913 340.008 189.909 340.657C189.902 343.996 189.902 343.996 191.443 346.886C193.536 348.2 195.337 348.193 197.742 347.706C199.26 346.576 200.015 345.723 200.863 344.08C200.924 343.277 200.947 342.47 200.951 341.664C200.954 341.159 200.958 340.653 200.961 340.133C200.962 339.577 200.963 339.021 200.964 338.448C200.967 337.863 200.97 337.279 200.973 336.676C200.982 334.731 200.986 332.786 200.99 330.841C200.993 329.486 200.997 328.13 201.001 326.775C201.007 323.923 201.011 321.072 201.013 318.221C201.016 314.592 201.031 310.964 201.049 307.336C201.061 304.53 201.064 301.724 201.065 298.917C201.067 297.582 201.072 296.246 201.08 294.91C201.153 282.197 200.919 267.603 191.267 257.862C189.206 255.949 187.001 254.381 184.635 252.839C190.442 247.779 196.406 246.444 203.984 246.796C210.472 247.492 214.965 250.386 219.195 255.086C220.986 257.514 221.636 259.535 221.46 262.507C222.078 262.507 222.696 262.507 223.333 262.507C223.477 262.081 223.621 261.655 223.769 261.216C226.791 254.775 233.373 250.634 239.561 247.401C240.017 247.14 240.473 246.88 240.943 246.612C248.746 242.379 260.767 242.575 269.286 244.493C270.413 244.833 271.532 245.198 272.641 245.588C273.545 245.875 273.545 245.875 274.467 246.168C284.049 249.561 290.756 256.185 295.579 264.773C300.776 275.672 301.532 286.804 301.523 298.619C301.523 300.462 301.531 302.304 301.541 304.147C301.57 309.379 301.586 314.611 301.59 319.843C301.593 323.063 301.608 326.282 301.631 329.502C301.637 330.719 301.638 331.937 301.635 333.154C301.615 340.925 301.659 348.002 306.97 354.352C310.631 357.782 313.333 358.792 318.399 358.771C318.858 358.781 319.316 358.79 319.788 358.8C323.067 358.803 325.235 358.117 328.191 356.769C328.809 356.769 329.427 356.769 330.063 356.769C322.734 364.757 315.039 372.883 304.473 376.71C303.888 376.926 303.303 377.143 302.7 377.366C297.33 378.869 291.421 378.369 286.372 376.105C285.913 375.914 285.454 375.722 284.98 375.525C278.772 372.607 274.393 367.185 272.017 360.999C269.943 353.973 269.884 347.023 269.907 339.765C269.913 337.751 269.906 335.737 269.897 333.724C269.872 328.004 269.871 322.285 269.872 316.566C269.872 313.049 269.86 309.532 269.842 306.015C269.835 304.049 269.842 302.084 269.85 300.118C269.986 286.971 269.986 286.971 264.256 275.463C259.974 271.648 255.38 270.582 249.669 270.707C245.407 271.261 241.763 272.966 238.81 276.008C233.857 282.535 233.229 288.945 233.221 296.828C233.218 297.464 233.214 298.101 233.211 298.756C233.204 300.132 233.199 301.507 233.195 302.883C233.187 305.066 233.175 307.248 233.162 309.431C233.123 315.636 233.089 321.84 233.069 328.044C233.055 331.847 233.033 335.648 233.006 339.45C232.997 340.893 232.991 342.335 232.989 343.777C232.971 355.662 232.612 365.604 223.84 374.821C215.601 382.259 204.929 383.068 194.227 382.988C192.668 382.979 191.111 382.988 189.553 383C179.991 383.013 172.245 381.763 164.945 375.303C157.894 368.21 156.98 359.941 157.014 350.471C157.012 349.591 157.01 348.71 157.008 347.829C157.003 345.42 157.005 343.011 157.009 340.602C157.012 338 157.007 335.397 157.004 332.795C156.998 327.701 157 322.607 157.003 317.513C157.006 313.373 157.006 309.232 157.005 305.092C157.005 304.502 157.005 303.913 157.005 303.305C157.004 302.107 157.004 300.909 157.003 299.711C157 288.482 157.004 277.253 157.011 266.024C157.016 256.393 157.015 246.761 157.009 237.13C157.003 225.941 157 214.751 157.004 203.562C157.004 202.368 157.005 201.175 157.005 199.981C157.005 199.394 157.005 198.807 157.006 198.202C157.007 194.067 157.005 189.933 157.002 185.798C156.998 180.758 156.999 175.718 157.006 170.678C157.009 168.107 157.011 165.537 157.007 162.966C157.003 160.611 157.005 158.256 157.011 155.902C157.013 155.051 157.012 154.201 157.009 153.351C156.986 146.214 157.275 140.839 162.321 135.275C169.199 129.373 177.337 128.061 185.259 133.198Z" fill="#FDFEFE"/>
</g>
<defs>
<clipPath id="clip0_12195_12238">
<rect width="512" height="512" fill="white"/>
</clipPath>
</defs>
</svg>
